<svg id="Layer_1" data-name="Layer 1" xmlns="http://www.w3.org/2000/svg" viewBox="0 0 897.71 1003.8"><defs><style>.cls-1{stroke:#646464;}.cls-1,.cls-2{stroke-miterlimit:10;stroke-width:10px;}.cls-2{fill:red;stroke:#000;}</style></defs><title>dge logo</title><path class="cls-1" d="M732.46,191.14c-1.43,1.68-21.84-22.53-47.45-20-18.45,1.78-36,17.06-34,24.85.91,3.55,5.43,3.68,12.83,7.41,19.18,9.66,15.48,22.21,32.71,34,14,9.56,35.82,14.57,40.68,15.69,5.42,1.24,12.93,2.63,16.8,8.72,3.4,5.35,2.45,11.9,1.33,16.12a374.56,374.56,0,0,0,44.21,17.44c11.85,3.83,23.12,6.81,33.6,9.15a59.33,59.33,0,0,1,20.78,24,58.3,58.3,0,0,1,5.31,30.08l-24.32,23.53a47.92,47.92,0,0,1-24.32,0c-18.7-5.23-24.07-20.87-40.67-33.56-9.18-7-23.9-14.74-47.75-16.56l-101.69,9.59c-6.42.12-23.87-.41-40.24-12.21-26.22-18.9-26.94-50.34-27-54.05a106.54,106.54,0,0,0-26.52,23.1c-16.06,19.67-19.64,39.23-22,38.72-1.77-.38-1.66-12.18,6.48-61.82-4.61,2.13-32.81,18.92-35.85,22.67,8.42-11,33.18-42.86,31.82-44.79-3.5-4.94-23.18-1-37.53,8.61-13.05,8.74-26.73,25.51-27,43.59-.39,29.75,34.76,50.73,53.87,62.14,85,50.72,209.77,32.94,264.47,22.42a148.22,148.22,0,0,1-64.56,37.92,180.85,180.85,0,0,0,83.12,22.23c83.12,44.58,156.82,119.17,155.19,202.26-1,53.25-23.82,94-32.71,115.51l-9.73-64.07c-15,16.8-34.93,55.38-32.72,109,2.24,54.27,16.52,94.88,26.09,112.9-40.94-24.41-68.2-75.69-89.76-138.18-52.22,32.19-102.63,58.66-148.55,71,24-14.93,40.6-27.55,38.91-34.44C574.47,864.21,479.66,913.63,442.72,994.5q-4-104.6,124.68-181.33l-65-21.36C456.87,877.62,336.19,877.9,263,852.45c64.46,4.76,115.33-.38,140.82-29.26-54.45,5.94-74.62-5.29-72.95-27.46,22.75,17.49,42.82,11.72,61.46-6.54a31.59,31.59,0,0,0,1.24-15.9s-2.06-19.12-27.33-29c-66.3-25.91-190.74,3.75-187,95-6.48-9.73-13.41-21.65-19.9-31.38-42,42.21-39.08,105.18-2.65,170.87C70.57,916,36.79,839.75,130.58,728.17c82.59-98.28,210.08-135.43,332.48-167.39-54.19,31.67-103,65.53-143.25,102.87l110.73-10.46-39.11,20,65.44,14c19.5-24.84,53.62-40.56,95.5-51.43-5.83,3-35.12,18.44-39.06,46.8,0,0-1.76,12.66,2.8,23.81,18.13,59.36,182.95,49.39,192.77,22.67a492.89,492.89,0,0,1-100.8-21.8c133.84-1.57,178.86-41,168.89-103.74-33,43.2-39.85,55-84.89,66.69,26.58-21.55,36.93-41.39,34-60-6.82-44.12-64.26-74.92-167.57-87.78,11.26,10.54,25.67,19.4,42.44,27-32.57-.23-173-33.4-223.71-65.39a227.5,227.5,0,0,1-80-79.33c-37.58,59-35.28,115.08-24.32,166.51-66.24-53.07-73.89-110.36-61-169.12,13.57-45,44.21-92.18,82.23-140.36-60.12,16.66-115,56.5-168,104.61,22.6-63.54,74.08-116.48,132.2-155.18L134.09,190.82l172.45-12.76c-72-20.8-145.51-39.31-221.06-54.92,106.66-2.84,211.48,4.57,313.91,25.28,3.9-2.62-4.87-10.36-14.15-18.3,51.37,7.23,91.8,16.1,118.49,27,4.92-15.6-18-26.29-62.78-33.13l35.37-8.72c-25.09-28.52-59.43-58.58-100.8-89.79C472.68,56.28,549.22,100.71,605.43,158c17.71-6.38,55.28-16.81,90.19,0C719.48,169.5,733.71,189.67,732.46,191.14Z" transform="translate(-42.13 -11.92)"/><path class="cls-2" d="M697.24,269.75H655.83C645.44,256,626.27,239.85,606,223.4,636.81,227.37,667.26,241.37,697.24,269.75Z" transform="translate(-42.13 -11.92)"/></svg>